<svg width="25" height="25" viewBox="0 0 25 25" fill="none" xmlns="http://www.w3.org/2000/svg">
<path d="M19.7917 11.4584H13.5417V5.20841C13.5417 4.93215 13.432 4.6672 13.2367 4.47185C13.0413 4.27649 12.7763 4.16675 12.5001 4.16675C12.2238 4.16675 11.9589 4.27649 11.7635 4.47185C11.5682 4.6672 11.4584 4.93215 11.4584 5.20841V11.4584H5.20841C4.93215 11.4584 4.6672 11.5682 4.47185 11.7635C4.27649 11.9589 4.16675 12.2238 4.16675 12.5001C4.16675 12.7763 4.27649 13.0413 4.47185 13.2367C4.6672 13.432 4.93215 13.5417 5.20841 13.5417H11.4584V19.7917C11.4584 20.068 11.5682 20.333 11.7635 20.5283C11.9589 20.7237 12.2238 20.8334 12.5001 20.8334C12.7763 20.8334 13.0413 20.7237 13.2367 20.5283C13.432 20.333 13.5417 20.068 13.5417 19.7917V13.5417H19.7917C20.068 13.5417 20.333 13.432 20.5283 13.2367C20.7237 13.0413 20.8334 12.7763 20.8334 12.5001C20.8334 12.2238 20.7237 11.9589 20.5283 11.7635C20.333 11.5682 20.068 11.4584 19.7917 11.4584Z" fill="#302F2F"/>
</svg>
